<?xml version="1.0" encoding="UTF-8" standalone="no"?>
<!-- Created with Inkscape (http://www.inkscape.org/) -->

<svg
   xmlns:dc="http://purl.org/dc/elements/1.1/"
   xmlns:cc="http://creativecommons.org/ns#"
   xmlns:rdf="http://www.w3.org/1999/02/22-rdf-syntax-ns#"
   xmlns:svg="http://www.w3.org/2000/svg"
   xmlns="http://www.w3.org/2000/svg"
   xmlns:sodipodi="http://sodipodi.sourceforge.net/DTD/sodipodi-0.dtd"
   xmlns:inkscape="http://www.inkscape.org/namespaces/inkscape"
   version="1.1"
   id="svg2"
   width="327.91153"
   height="409.27563"
   viewBox="0 0 327.91152 409.27564"
   sodipodi:docname="buttons-o.svg"
   inkscape:version="0.92.4 (5da689c313, 2019-01-14)">
  <metadata
     id="metadata8">
    <rdf:RDF>
      <cc:Work
         rdf:about="">
        <dc:format>image/svg+xml</dc:format>
        <dc:type
           rdf:resource="http://purl.org/dc/dcmitype/StillImage" />
        <dc:title />
      </cc:Work>
    </rdf:RDF>
  </metadata>
  <defs
     id="defs6" />
  <sodipodi:namedview
     pagecolor="#ffffff"
     bordercolor="#666666"
     borderopacity="1"
     objecttolerance="10"
     gridtolerance="10"
     guidetolerance="10"
     inkscape:pageopacity="0"
     inkscape:pageshadow="2"
     inkscape:window-width="1920"
     inkscape:window-height="1080"
     id="namedview4"
     showgrid="false"
     fit-margin-top="0"
     fit-margin-left="0"
     fit-margin-right="0"
     fit-margin-bottom="0"
     inkscape:zoom="1.2196397"
     inkscape:cx="-67.034265"
     inkscape:cy="212.48037"
     inkscape:window-x="0"
     inkscape:window-y="0"
     inkscape:window-maximized="1"
     inkscape:current-layer="svg2" />
  <ellipse
     style="opacity:1;fill:none;fill-opacity:1;stroke:#fff8f1;stroke-width:1;stroke-miterlimit:4;stroke-dasharray:none;stroke-opacity:1"
     id="path827"
     cx="125.54119"
     cy="106.7495"
     rx="25.543484"
     ry="23.966724" />
  <ellipse
     style="opacity:1;fill:none;fill-opacity:1;stroke:#fff8f1;stroke-width:1;stroke-miterlimit:4;stroke-dasharray:none;stroke-opacity:1"
     id="path827-3"
     cx="214.15498"
     cy="73.322235"
     rx="25.543484"
     ry="23.966724" />
  <path
     style="fill:#fff8f1;stroke-width:0.64477271;fill-opacity:1"
     d="m 184.56676,408.2874 c -0.25041,-0.6658 -2.42936,-4.86522 -4.8421,-9.33203 l -4.38681,-8.12148 -5.47534,-3.07303 c -4.53295,-2.54412 -7.0713,-4.69749 -14.74803,-12.51125 -5.09998,-5.19102 -10.98008,-11.34149 -13.06688,-13.66772 -2.0868,-2.32623 -7.71117,-7.87084 -12.49861,-12.32135 -4.78744,-4.45051 -9.1631,-8.64034 -9.72369,-9.31072 -2.02566,-2.42237 -4.30113,-7.12922 -6.04416,-12.5024 -2.52051,-7.76992 -6.19692,-14.52347 -10.61614,-19.50187 -3.963132,-4.46458 -8.805932,-11.10909 -10.356552,-14.20958 -1.14473,-2.28892 -11.041142,-11.87012 -17.742762,-17.17764 -2.837,-2.24684 -5.37135,-4.40992 -5.63189,-4.80684 -0.26054,-0.39693 -0.47815,-1.814 -0.48358,-3.14905 -0.021,-5.17413 7.08249,-9.3216 17.076612,-9.97034 6.85075,-0.4447 11.68798,0.80415 20.632732,5.32685 7.87808,3.98337 9.40042,5.4733 11.73397,11.48414 2.2115,5.6965 3.25945,7.48304 6.24627,10.64869 4.30807,4.566 13.24891,11.05132 15.23565,11.05132 2.02379,0 5.65689,-3.60111 10.49238,-10.39996 4.66787,-6.56316 5.11661,-8.28848 5.46104,-20.99592 0.33602,-12.39717 -0.38774,-20.421 -2.75405,-30.53281 -1.86088,-7.95195 -12.40324,-72.8877 -12.98329,-79.9706 -0.81622,-9.96698 3.92583,-16.5227 12.14592,-16.79132 7.0321,-0.22979 8.84942,1.30735 11.45898,9.69232 6.38909,20.52925 9.26086,30.92719 11.94663,43.25556 6.61408,30.36037 10.34454,42.69686 13.02661,43.07855 1.9078,0.2715 2.95906,-1.90963 4.60307,-9.55036 2.04719,-9.51452 3.32127,-19.94834 3.69235,-30.23754 0.44193,-12.2539 1.28135,-20.80822 3.17009,-32.30542 1.44819,-8.81549 2.12327,-15.09909 3.551,-33.05253 0.70486,-8.86344 1.85511,-11.99142 5.67478,-15.43193 3.61911,-3.25985 7.19146,-4.17919 10.83397,-2.7881 3.41869,1.30561 7.08717,5.25825 7.90732,8.51982 1.05994,4.21514 1.45476,24.46043 0.73318,37.59456 -0.37991,6.91518 -0.79725,15.90977 -0.92742,19.98795 -0.20516,6.42794 -0.97041,21.33119 -1.91228,37.24181 -0.5148,8.69628 1.50595,22.4691 3.69687,25.19664 0.8896,1.1075 1.12393,0.48687 4.34247,-11.5014 5.88201,-21.90906 9.58972,-35.32867 10.51052,-38.04159 0.54163,-1.59581 1.43483,-5.51281 1.98489,-8.70443 2.87935,-16.70713 11.12405,-36.27727 16.47641,-39.10948 4.74059,-2.5085 10.41077,-1.05843 13.81338,3.53258 2.60235,3.51124 2.0787,14.39281 -1.5724,32.67542 -0.67279,3.36894 -1.66568,10.7677 -2.20642,16.4417 -0.92278,9.68289 -5.84472,38.14449 -8.78682,50.81067 -1.43578,6.18128 -2.35529,14.63377 -1.59193,14.63377 2.23556,0 16.20431,-13.87368 25.2108,-25.03921 13.14457,-16.29561 15.85207,-19.85913 17.73647,-23.34419 3.02801,-5.60005 6.05952,-8.43621 10.32487,-9.65949 7.07295,-2.0285 13.67717,6.35701 11.58271,14.7068 -1.766,7.04033 -21.04893,39.21253 -26.60257,44.38449 -5.80969,5.41043 -9.34395,10.7872 -12.42816,18.90738 -1.27288,3.35124 -2.59708,6.43387 -2.94267,6.85029 -0.5707,0.68765 -2.46301,10.0478 -7.35517,36.38165 -3.69251,19.87633 -5.45106,26.96885 -7.77108,31.34204 -1.89521,3.57242 -2.24277,4.87541 -2.24277,8.40802 0,3.61772 0.43396,5.15867 3.22386,11.44766 1.77313,3.99698 3.22386,7.59274 3.22386,7.99059 0,2.69757 -9.47647,7.60921 -23.21181,12.03063 -17.72098,5.7044 -49.83635,13.12139 -61.72569,14.25543 -4.20064,0.40067 -4.70847,0.3247 -5.11859,-0.76575 z m 15.76523,-2.22577 c 32.26914,-5.85603 66.24,-16.3104 71.56066,-22.02244 l 1.46083,-1.56828 -3.36059,-7.3626 c -2.9817,-6.53249 -3.3567,-7.83511 -3.32609,-11.55362 0.029,-3.51599 0.42157,-4.95872 2.43768,-8.95742 2.50871,-4.9757 3.97207,-10.97658 8.03577,-32.95281 5.17956,-28.01064 6.35717,-33.02445 9.66259,-41.13942 3.50445,-8.60359 7.38594,-14.63479 12.47096,-19.3778 4.49691,-4.19446 14.62698,-20.02437 23.74034,-37.09821 2.94772,-5.52255 3.40546,-6.86622 3.40546,-9.99677 0,-3.75137 -0.744,-5.82268 -2.9694,-8.26698 -4.53376,-4.97969 -11.91021,-1.93595 -16.62193,6.85871 -1.73932,3.24653 -8.71317,12.6915 -12.41784,16.81797 -0.79593,0.88657 -3.75359,4.51341 -6.57256,8.05966 -5.8835,7.40141 -18.15295,20.04005 -21.84823,22.50565 -2.68904,1.79421 -4.87131,2.1755 -4.96431,0.86736 -0.20818,-2.92842 0.32884,-7.72066 1.4432,-12.87886 0.71064,-3.2894 1.68253,-8.15685 2.15977,-10.81653 0.47723,-2.65969 1.62781,-8.75279 2.55685,-13.54023 2.76175,-14.2316 4.03365,-22.50694 4.50908,-29.33716 0.24684,-3.54625 1.46009,-11.96053 2.69611,-18.69841 2.56913,-14.00495 3.35828,-23.47034 2.23943,-26.86049 -1.17843,-3.57069 -3.98648,-5.8376 -7.61853,-6.15038 -4.82735,-0.41571 -6.95201,1.07566 -10.28584,7.21996 -5.22445,9.62872 -8.63845,19.93352 -11.42837,34.49534 -0.50958,2.65969 -2.09313,8.89787 -3.51901,13.86262 -2.4634,8.57731 -5.162,18.30517 -9.80791,35.35547 -1.22909,4.51072 -2.46033,7.77654 -3.01154,7.98806 -3.7485,1.43843 -7.11138,-13.32499 -6.34814,-27.86899 0.22332,-4.2555 0.68541,-12.95993 1.02688,-19.34318 1.80762,-33.79153 2.63602,-54.32395 2.28682,-56.68005 -0.21513,-1.45147 -0.40291,-5.39545 -0.4173,-8.76438 -0.032,-7.49001 -0.72429,-10.32671 -3.21159,-13.15959 -4.09878,-4.66825 -9.23236,-4.97328 -13.95244,-0.82905 -3.86523,3.39368 -4.63608,6.04666 -5.69657,19.60565 -1.16525,14.89854 -1.35692,16.62703 -2.91621,26.29924 -1.94277,12.05088 -3.19035,23.9361 -3.19035,30.39324 0,16.01213 -4.39351,41.47093 -7.57888,43.91682 -0.57729,0.44328 -1.71365,0.80596 -2.52523,0.80596 -3.55944,0 -7.43559,-12.81502 -16.67454,-55.12807 -0.85175,-3.90087 -2.86391,-11.0937 -4.47147,-15.98405 -1.60755,-4.89036 -2.92283,-9.20061 -2.92283,-9.57835 0,-0.37774 -0.76043,-3.17985 -1.68984,-6.22692 -2.3202,-7.60672 -3.9079,-9.15375 -9.39441,-9.15375 -4.80407,0 -7.81792,1.64635 -10.28855,5.62023 -1.30672,2.1018 -1.5048,3.19797 -1.43108,7.92 0.0924,5.9188 10.23395,70.61978 12.48152,79.62943 2.60152,10.42855 3.37786,18.42807 3.09161,31.85619 -0.22074,10.35411 -0.48349,13.15656 -1.45652,15.53461 -1.50431,3.67647 -6.12154,10.29169 -10.23824,14.66858 -4.21626,4.48274 -5.9805,4.54177 -11.79231,0.39454 -9.28141,-6.62307 -13.95892,-11.95727 -16.03572,-18.28698 -1.81065,-5.51857 -3.72293,-7.88512 -8.54569,-10.5758 -12.624032,-7.04312 -21.288142,-8.37937 -31.573414,-4.86951 -6.50438,2.21963 -9.36464,7.24811 -5.81344,10.22032 0.7979,0.66782 4.06207,3.38465 7.25369,6.03741 7.078562,5.88344 14.674892,13.78384 16.060122,16.703 0.97096,2.04614 3.9335,6.00503 10.849182,14.49788 3.96673,4.87137 6.29811,9.34054 9.12689,17.49594 1.26517,3.64753 3.06137,7.9305 3.99154,9.51771 0.93017,1.58722 5.49546,6.43687 10.14509,10.77701 4.64963,4.34013 10.20547,9.77427 12.34632,12.07585 10.60743,11.40387 23.36295,24.2799 24.82238,25.0569 9.54015,5.07918 9.8964,5.42381 14.61348,14.13658 2.43788,4.50292 4.53122,8.57897 4.65187,9.05791 0.25715,1.0208 4.22957,0.69188 14.79079,-1.22472 z"
     id="path913"
     inkscape:connector-curvature="0" />
  <text
     xml:space="preserve"
     style="font-style:normal;font-weight:normal;font-size:40px;line-height:1.25;font-family:sans-serif;letter-spacing:0px;word-spacing:0px;fill:#fff8f1;fill-opacity:1;stroke:none;"
     x="113.7653"
     y="118.85742"
     id="text917"><tspan
       sodipodi:role="line"
       id="tspan915"
       x="113.7653"
       y="118.85742">o</tspan></text>
  <text
     xml:space="preserve"
     style="font-style:normal;font-weight:normal;font-size:40px;line-height:1.25;font-family:sans-serif;letter-spacing:0px;word-spacing:0px;fill:#fff8f1;fill-opacity:1;stroke:none;"
     x="201.32515"
     y="80.998566"
     id="text921"><tspan
       sodipodi:role="line"
       id="tspan919"
       x="201.32515"
       y="80.998566">p</tspan></text>
  <path
     style="fill:none;stroke:#fff8f1;stroke-width:1px;stroke-linecap:butt;stroke-linejoin:miter;stroke-opacity:1"
     d="M 114.04545,71.470964 C 68.130256,-9.7005502 0.07736999,0.95833583 0.07736999,0.95833583"
     id="path832"
     inkscape:connector-curvature="0" />
  <path
     sodipodi:type="star"
     style="opacity:1;fill:#fff8f1;fill-opacity:1;stroke:#fff8f1;stroke-width:1;stroke-miterlimit:4;stroke-dasharray:none;stroke-opacity:1"
     id="path840"
     sodipodi:sides="3"
     sodipodi:cx="36.076229"
     sodipodi:cy="10.316738"
     sodipodi:r1="15.251287"
     sodipodi:r2="7.6256437"
     sodipodi:arg1="0.93804749"
     sodipodi:arg2="1.985245"
     inkscape:flatsided="false"
     inkscape:rounded="0"
     inkscape:randomized="0"
     d="M 45.095286,22.615453 33.005494,17.296783 20.915701,11.978114 31.5667,4.1673811 42.2177,-3.6433518 43.656493,9.4860501 Z"
     inkscape:transform-center-x="3.396994"
     inkscape:transform-center-y="0.47172476"
     transform="rotate(9.8004371,-235.7013,462.18888)" />
</svg>
